<mxfile host="app.diagrams.net" modified="2022-03-03T18:21:40.465Z" agent="5.0 (Windows NT 10.0; Win64; x64) AppleWebKit/537.36 (KHTML, like Gecko) Chrome/99.0.4844.51 Safari/537.36" etag="G7VLaJMPSVfHhuGTuICM" version="16.6.5" type="github">
  <diagram id="I0W5fS5LRaxKxFZAML5S" name="Page-1">
    <mxGraphModel dx="1102" dy="3338" grid="1" gridSize="10" guides="1" tooltips="1" connect="1" arrows="1" fold="1" page="1" pageScale="1" pageWidth="827" pageHeight="1169" math="0" shadow="0">
      <root>
        <mxCell id="0" />
        <mxCell id="1" parent="0" />
        <mxCell id="aA224XG_lAUqw9ENQd_d-1" value="" style="whiteSpace=wrap;html=1;aspect=fixed;fontStyle=3;labelBackgroundColor=#FFFFFF;" parent="1" vertex="1">
          <mxGeometry x="1340" y="-2090" width="360" height="360" as="geometry" />
        </mxCell>
        <mxCell id="aA224XG_lAUqw9ENQd_d-3" value="" style="shape=mxgraph.cisco.servers.fileserver;sketch=0;html=1;pointerEvents=1;dashed=0;fillColor=#036897;strokeColor=#ffffff;strokeWidth=2;verticalLabelPosition=bottom;verticalAlign=top;align=center;outlineConnect=0;" parent="1" vertex="1">
          <mxGeometry x="1360" y="-2050" width="50" height="90" as="geometry" />
        </mxCell>
        <mxCell id="aA224XG_lAUqw9ENQd_d-4" value="" style="shape=mxgraph.cisco.servers.fileserver;sketch=0;html=1;pointerEvents=1;dashed=0;fillColor=#036897;strokeColor=#ffffff;strokeWidth=2;verticalLabelPosition=bottom;verticalAlign=top;align=center;outlineConnect=0;" parent="1" vertex="1">
          <mxGeometry x="1450" y="-2050" width="43" height="90" as="geometry" />
        </mxCell>
        <mxCell id="aA224XG_lAUqw9ENQd_d-5" value="" style="shape=mxgraph.cisco.servers.fileserver;sketch=0;html=1;pointerEvents=1;dashed=0;fillColor=#036897;strokeColor=#ffffff;strokeWidth=2;verticalLabelPosition=bottom;verticalAlign=top;align=center;outlineConnect=0;" parent="1" vertex="1">
          <mxGeometry x="1540" y="-2050" width="43" height="90" as="geometry" />
        </mxCell>
        <mxCell id="aA224XG_lAUqw9ENQd_d-6" value="" style="shape=mxgraph.cisco.servers.fileserver;sketch=0;html=1;pointerEvents=1;dashed=0;fillColor=#036897;strokeColor=#ffffff;strokeWidth=2;verticalLabelPosition=bottom;verticalAlign=top;align=center;outlineConnect=0;" parent="1" vertex="1">
          <mxGeometry x="1640" y="-2050" width="43" height="90" as="geometry" />
        </mxCell>
        <mxCell id="aA224XG_lAUqw9ENQd_d-7" value="" style="shape=mxgraph.cisco.switches.layer_2_remote_switch;sketch=0;html=1;pointerEvents=1;dashed=0;fillColor=#036897;strokeColor=#ffffff;strokeWidth=2;verticalLabelPosition=bottom;verticalAlign=top;align=center;outlineConnect=0;" parent="1" vertex="1">
          <mxGeometry x="1469.5" y="-1840" width="101" height="50" as="geometry" />
        </mxCell>
        <mxCell id="aA224XG_lAUqw9ENQd_d-8" value="" style="endArrow=none;html=1;rounded=0;" parent="1" source="aA224XG_lAUqw9ENQd_d-3" target="aA224XG_lAUqw9ENQd_d-7" edge="1">
          <mxGeometry width="50" height="50" relative="1" as="geometry">
            <mxPoint x="1220" y="-1810" as="sourcePoint" />
            <mxPoint x="1260" y="-1860" as="targetPoint" />
            <Array as="points">
              <mxPoint x="1410" y="-1920" />
            </Array>
          </mxGeometry>
        </mxCell>
        <mxCell id="aA224XG_lAUqw9ENQd_d-9" value="" style="endArrow=none;html=1;rounded=0;exitX=0.5;exitY=0;exitDx=0;exitDy=0;exitPerimeter=0;" parent="1" source="aA224XG_lAUqw9ENQd_d-7" target="aA224XG_lAUqw9ENQd_d-4" edge="1">
          <mxGeometry width="50" height="50" relative="1" as="geometry">
            <mxPoint x="1480" y="-1880" as="sourcePoint" />
            <mxPoint x="1530" y="-1930" as="targetPoint" />
          </mxGeometry>
        </mxCell>
        <mxCell id="aA224XG_lAUqw9ENQd_d-11" value="" style="endArrow=none;html=1;rounded=0;" parent="1" source="aA224XG_lAUqw9ENQd_d-7" target="aA224XG_lAUqw9ENQd_d-5" edge="1">
          <mxGeometry width="50" height="50" relative="1" as="geometry">
            <mxPoint x="1570" y="-1870" as="sourcePoint" />
            <mxPoint x="1620" y="-1920" as="targetPoint" />
          </mxGeometry>
        </mxCell>
        <mxCell id="aA224XG_lAUqw9ENQd_d-12" value="" style="endArrow=none;html=1;rounded=0;" parent="1" source="aA224XG_lAUqw9ENQd_d-7" target="aA224XG_lAUqw9ENQd_d-6" edge="1">
          <mxGeometry width="50" height="50" relative="1" as="geometry">
            <mxPoint x="1620" y="-1860" as="sourcePoint" />
            <mxPoint x="1670" y="-1910" as="targetPoint" />
            <Array as="points">
              <mxPoint x="1650" y="-1900" />
            </Array>
          </mxGeometry>
        </mxCell>
        <mxCell id="aA224XG_lAUqw9ENQd_d-13" value="&lt;h3 style=&quot;font-size: 18px;&quot;&gt;&lt;b style=&quot;font-size: 18px;&quot;&gt;&lt;i style=&quot;background-color: rgb(255, 255, 255); font-size: 18px;&quot;&gt;SERVER ROOM&lt;/i&gt;&lt;/b&gt;&lt;/h3&gt;" style="text;html=1;strokeColor=none;fillColor=none;align=center;verticalAlign=middle;whiteSpace=wrap;rounded=0;fontSize=18;" parent="1" vertex="1">
          <mxGeometry x="1547" y="-1780" width="173" height="80" as="geometry" />
        </mxCell>
        <mxCell id="aA224XG_lAUqw9ENQd_d-14" value="" style="shape=mxgraph.cisco.routers.router;sketch=0;html=1;pointerEvents=1;dashed=0;fillColor=#036897;strokeColor=#ffffff;strokeWidth=2;verticalLabelPosition=bottom;verticalAlign=top;align=center;outlineConnect=0;labelBackgroundColor=#FFFFFF;" parent="1" vertex="1">
          <mxGeometry x="1350" y="-1630" width="88" height="53" as="geometry" />
        </mxCell>
        <mxCell id="aA224XG_lAUqw9ENQd_d-15" value="" style="shape=mxgraph.cisco.routers.router;sketch=0;html=1;pointerEvents=1;dashed=0;fillColor=#036897;strokeColor=#ffffff;strokeWidth=2;verticalLabelPosition=bottom;verticalAlign=top;align=center;outlineConnect=0;labelBackgroundColor=#FFFFFF;" parent="1" vertex="1">
          <mxGeometry x="1600" y="-1630" width="90" height="53" as="geometry" />
        </mxCell>
        <mxCell id="aA224XG_lAUqw9ENQd_d-22" value="" style="endArrow=none;html=1;rounded=0;" parent="1" source="aA224XG_lAUqw9ENQd_d-14" target="aA224XG_lAUqw9ENQd_d-7" edge="1">
          <mxGeometry width="50" height="50" relative="1" as="geometry">
            <mxPoint x="1420" y="-1690" as="sourcePoint" />
            <mxPoint x="1470" y="-1740" as="targetPoint" />
          </mxGeometry>
        </mxCell>
        <mxCell id="aA224XG_lAUqw9ENQd_d-23" value="" style="endArrow=none;html=1;rounded=0;" parent="1" source="aA224XG_lAUqw9ENQd_d-15" target="aA224XG_lAUqw9ENQd_d-7" edge="1">
          <mxGeometry width="50" height="50" relative="1" as="geometry">
            <mxPoint x="1590" y="-1670" as="sourcePoint" />
            <mxPoint x="1640" y="-1720" as="targetPoint" />
          </mxGeometry>
        </mxCell>
        <mxCell id="aA224XG_lAUqw9ENQd_d-26" value="" style="shape=mxgraph.cisco.switches.layer_2_remote_switch;sketch=0;html=1;pointerEvents=1;dashed=0;fillColor=#036897;strokeColor=#ffffff;strokeWidth=2;verticalLabelPosition=bottom;verticalAlign=top;align=center;outlineConnect=0;" parent="1" vertex="1">
          <mxGeometry x="1482" y="-1169" width="101" height="50" as="geometry" />
        </mxCell>
        <mxCell id="aA224XG_lAUqw9ENQd_d-32" value="" style="whiteSpace=wrap;html=1;aspect=fixed;labelBackgroundColor=#FFFFFF;" parent="1" vertex="1">
          <mxGeometry x="1190" y="-1470" width="742.5" height="742.5" as="geometry" />
        </mxCell>
        <mxCell id="aA224XG_lAUqw9ENQd_d-34" value="" style="shape=mxgraph.cisco.routers.router;sketch=0;html=1;pointerEvents=1;dashed=0;fillColor=#036897;strokeColor=#ffffff;strokeWidth=2;verticalLabelPosition=bottom;verticalAlign=top;align=center;outlineConnect=0;labelBackgroundColor=#FFFFFF;" parent="1" vertex="1">
          <mxGeometry x="1482" y="-1400" width="78" height="53" as="geometry" />
        </mxCell>
        <mxCell id="aA224XG_lAUqw9ENQd_d-38" value="" style="html=1;outlineConnect=0;fillColor=#CCCCCC;strokeColor=#6881B3;gradientColor=none;gradientDirection=north;strokeWidth=2;shape=mxgraph.networks.comm_link_edge;html=1;rounded=0;entryX=0.333;entryY=0.377;entryDx=0;entryDy=0;entryPerimeter=0;" parent="1" source="aA224XG_lAUqw9ENQd_d-34" target="aA224XG_lAUqw9ENQd_d-15" edge="1">
          <mxGeometry width="100" height="100" relative="1" as="geometry">
            <mxPoint x="1510" y="-1430" as="sourcePoint" />
            <mxPoint x="1610" y="-1530" as="targetPoint" />
          </mxGeometry>
        </mxCell>
        <mxCell id="aA224XG_lAUqw9ENQd_d-40" value="" style="html=1;outlineConnect=0;fillColor=#CCCCCC;strokeColor=#6881B3;gradientColor=none;gradientDirection=north;strokeWidth=2;shape=mxgraph.networks.comm_link_edge;html=1;rounded=0;exitX=0.12;exitY=0.1;exitDx=0;exitDy=0;exitPerimeter=0;entryX=0.88;entryY=0.9;entryDx=0;entryDy=0;entryPerimeter=0;" parent="1" source="aA224XG_lAUqw9ENQd_d-34" target="aA224XG_lAUqw9ENQd_d-14" edge="1">
          <mxGeometry width="100" height="100" relative="1" as="geometry">
            <mxPoint x="1201" y="-1190" as="sourcePoint" />
            <mxPoint x="1320" y="-1410" as="targetPoint" />
            <Array as="points">
              <mxPoint x="1181" y="-1320" />
            </Array>
          </mxGeometry>
        </mxCell>
        <mxCell id="aA224XG_lAUqw9ENQd_d-42" value="" style="shape=mxgraph.cisco.switches.layer_2_remote_switch;sketch=0;html=1;pointerEvents=1;dashed=0;fillColor=#036897;strokeColor=#ffffff;strokeWidth=2;verticalLabelPosition=bottom;verticalAlign=top;align=center;outlineConnect=0;labelBackgroundColor=#FFFFFF;" parent="1" vertex="1">
          <mxGeometry x="1470.5" y="-1180" width="101" height="50" as="geometry" />
        </mxCell>
        <mxCell id="aA224XG_lAUqw9ENQd_d-43" value="" style="endArrow=none;html=1;rounded=0;entryX=0.5;entryY=1;entryDx=0;entryDy=0;entryPerimeter=0;fontStyle=1;fontSize=45;" parent="1" source="aA224XG_lAUqw9ENQd_d-42" target="aA224XG_lAUqw9ENQd_d-34" edge="1">
          <mxGeometry width="50" height="50" relative="1" as="geometry">
            <mxPoint x="1530" y="-1240" as="sourcePoint" />
            <mxPoint x="1580" y="-1290" as="targetPoint" />
          </mxGeometry>
        </mxCell>
        <mxCell id="aA224XG_lAUqw9ENQd_d-44" value="" style="shape=mxgraph.cisco.people.pc_man;sketch=0;html=1;pointerEvents=1;dashed=0;fillColor=#036897;strokeColor=#ffffff;strokeWidth=2;verticalLabelPosition=bottom;verticalAlign=top;align=center;outlineConnect=0;labelBackgroundColor=#FFFFFF;fontSize=45;" parent="1" vertex="1">
          <mxGeometry x="1210" y="-1169" width="100" height="100" as="geometry" />
        </mxCell>
        <mxCell id="aA224XG_lAUqw9ENQd_d-46" value="" style="shape=mxgraph.cisco.people.androgenous_person;sketch=0;html=1;pointerEvents=1;dashed=0;fillColor=#036897;strokeColor=#ffffff;strokeWidth=2;verticalLabelPosition=bottom;verticalAlign=top;align=center;outlineConnect=0;labelBackgroundColor=#FFFFFF;fontSize=45;" parent="1" vertex="1">
          <mxGeometry x="1230" y="-1000" width="69" height="82" as="geometry" />
        </mxCell>
        <mxCell id="aA224XG_lAUqw9ENQd_d-47" value="" style="shape=mxgraph.cisco.people.sitting_woman;sketch=0;html=1;pointerEvents=1;dashed=0;fillColor=#036897;strokeColor=#ffffff;strokeWidth=2;verticalLabelPosition=bottom;verticalAlign=top;align=center;outlineConnect=0;labelBackgroundColor=#FFFFFF;fontSize=45;" parent="1" vertex="1">
          <mxGeometry x="1780" y="-1169" width="56" height="90" as="geometry" />
        </mxCell>
        <mxCell id="aA224XG_lAUqw9ENQd_d-48" value="" style="shape=mxgraph.cisco.computers_and_peripherals.pc;sketch=0;html=1;pointerEvents=1;dashed=0;fillColor=#036897;strokeColor=#ffffff;strokeWidth=2;verticalLabelPosition=bottom;verticalAlign=top;align=center;outlineConnect=0;labelBackgroundColor=#FFFFFF;fontSize=45;" parent="1" vertex="1">
          <mxGeometry x="1780" y="-1010" width="78" height="70" as="geometry" />
        </mxCell>
        <mxCell id="aA224XG_lAUqw9ENQd_d-49" value="" style="shape=mxgraph.cisco.computers_and_peripherals.printer;sketch=0;html=1;pointerEvents=1;dashed=0;fillColor=#036897;strokeColor=#ffffff;strokeWidth=2;verticalLabelPosition=bottom;verticalAlign=top;align=center;outlineConnect=0;labelBackgroundColor=#FFFFFF;fontSize=45;" parent="1" vertex="1">
          <mxGeometry x="1745" y="-870" width="91" height="34" as="geometry" />
        </mxCell>
        <mxCell id="aA224XG_lAUqw9ENQd_d-50" value="" style="shape=mxgraph.cisco.computers_and_peripherals.laptop;sketch=0;html=1;pointerEvents=1;dashed=0;fillColor=#036897;strokeColor=#ffffff;strokeWidth=2;verticalLabelPosition=bottom;verticalAlign=top;align=center;outlineConnect=0;labelBackgroundColor=#FFFFFF;fontSize=45;" parent="1" vertex="1">
          <mxGeometry x="1280" y="-870" width="90" height="61" as="geometry" />
        </mxCell>
        <mxCell id="aA224XG_lAUqw9ENQd_d-51" value="" style="fontColor=#0066CC;verticalAlign=top;verticalLabelPosition=bottom;labelPosition=center;align=center;html=1;outlineConnect=0;fillColor=#CCCCCC;strokeColor=#6881B3;gradientColor=none;gradientDirection=north;strokeWidth=2;shape=mxgraph.networks.pc;labelBackgroundColor=#FFFFFF;fontSize=45;" parent="1" vertex="1">
          <mxGeometry x="1611.5" y="-836" width="100" height="70" as="geometry" />
        </mxCell>
        <mxCell id="aA224XG_lAUqw9ENQd_d-52" value="" style="fontColor=#0066CC;verticalAlign=top;verticalLabelPosition=bottom;labelPosition=center;align=center;html=1;outlineConnect=0;fillColor=#CCCCCC;strokeColor=#6881B3;gradientColor=none;gradientDirection=north;strokeWidth=2;shape=mxgraph.networks.users;labelBackgroundColor=#FFFFFF;fontSize=45;" parent="1" vertex="1">
          <mxGeometry x="1430" y="-870" width="90" height="100" as="geometry" />
        </mxCell>
        <mxCell id="aA224XG_lAUqw9ENQd_d-53" value="" style="endArrow=none;html=1;rounded=0;fontSize=45;" parent="1" source="aA224XG_lAUqw9ENQd_d-48" target="aA224XG_lAUqw9ENQd_d-42" edge="1">
          <mxGeometry width="50" height="50" relative="1" as="geometry">
            <mxPoint x="1750" y="-950" as="sourcePoint" />
            <mxPoint x="1800" y="-1000" as="targetPoint" />
          </mxGeometry>
        </mxCell>
        <mxCell id="aA224XG_lAUqw9ENQd_d-54" value="" style="endArrow=none;html=1;rounded=0;fontSize=45;" parent="1" source="aA224XG_lAUqw9ENQd_d-44" target="aA224XG_lAUqw9ENQd_d-42" edge="1">
          <mxGeometry width="50" height="50" relative="1" as="geometry">
            <mxPoint x="1370" y="-1110" as="sourcePoint" />
            <mxPoint x="1420" y="-1160" as="targetPoint" />
          </mxGeometry>
        </mxCell>
        <mxCell id="aA224XG_lAUqw9ENQd_d-55" value="" style="endArrow=none;html=1;rounded=0;fontSize=45;" parent="1" source="aA224XG_lAUqw9ENQd_d-46" target="aA224XG_lAUqw9ENQd_d-42" edge="1">
          <mxGeometry width="50" height="50" relative="1" as="geometry">
            <mxPoint x="1390" y="-980" as="sourcePoint" />
            <mxPoint x="1440" y="-1030" as="targetPoint" />
          </mxGeometry>
        </mxCell>
        <mxCell id="aA224XG_lAUqw9ENQd_d-56" value="" style="endArrow=none;html=1;rounded=0;fontSize=45;" parent="1" source="aA224XG_lAUqw9ENQd_d-50" target="aA224XG_lAUqw9ENQd_d-42" edge="1">
          <mxGeometry width="50" height="50" relative="1" as="geometry">
            <mxPoint x="1430" y="-980" as="sourcePoint" />
            <mxPoint x="1480" y="-1030" as="targetPoint" />
          </mxGeometry>
        </mxCell>
        <mxCell id="aA224XG_lAUqw9ENQd_d-57" value="" style="endArrow=none;html=1;rounded=0;fontSize=45;" parent="1" source="aA224XG_lAUqw9ENQd_d-52" target="aA224XG_lAUqw9ENQd_d-42" edge="1">
          <mxGeometry width="50" height="50" relative="1" as="geometry">
            <mxPoint x="1510" y="-960" as="sourcePoint" />
            <mxPoint x="1560" y="-1010" as="targetPoint" />
          </mxGeometry>
        </mxCell>
        <mxCell id="aA224XG_lAUqw9ENQd_d-58" value="" style="endArrow=none;html=1;rounded=0;fontSize=45;" parent="1" source="aA224XG_lAUqw9ENQd_d-51" target="aA224XG_lAUqw9ENQd_d-42" edge="1">
          <mxGeometry width="50" height="50" relative="1" as="geometry">
            <mxPoint x="1650" y="-980" as="sourcePoint" />
            <mxPoint x="1700" y="-1030" as="targetPoint" />
          </mxGeometry>
        </mxCell>
        <mxCell id="aA224XG_lAUqw9ENQd_d-59" value="" style="endArrow=none;html=1;rounded=0;fontSize=45;" parent="1" source="aA224XG_lAUqw9ENQd_d-49" target="aA224XG_lAUqw9ENQd_d-42" edge="1">
          <mxGeometry width="50" height="50" relative="1" as="geometry">
            <mxPoint x="1610" y="-1050" as="sourcePoint" />
            <mxPoint x="1660" y="-1100" as="targetPoint" />
          </mxGeometry>
        </mxCell>
        <mxCell id="aA224XG_lAUqw9ENQd_d-60" value="" style="endArrow=none;html=1;rounded=0;fontSize=45;" parent="1" source="aA224XG_lAUqw9ENQd_d-47" target="aA224XG_lAUqw9ENQd_d-42" edge="1">
          <mxGeometry width="50" height="50" relative="1" as="geometry">
            <mxPoint x="1670" y="-1030" as="sourcePoint" />
            <mxPoint x="1720" y="-1080" as="targetPoint" />
          </mxGeometry>
        </mxCell>
        <mxCell id="aA224XG_lAUqw9ENQd_d-62" value="Management&amp;nbsp;" style="text;html=1;strokeColor=none;fillColor=none;align=center;verticalAlign=middle;whiteSpace=wrap;rounded=0;labelBackgroundColor=#FFFFFF;fontSize=45;" parent="1" vertex="1">
          <mxGeometry x="1760.5" y="-1450" width="60" height="30" as="geometry" />
        </mxCell>
      </root>
    </mxGraphModel>
  </diagram>
</mxfile>
